<mxfile host="app.diagrams.net" modified="2023-02-24T09:31:53.808Z" agent="5.0 (Macintosh; Intel Mac OS X 10_15_7) AppleWebKit/605.1.15 (KHTML, like Gecko) Version/16.2 Safari/605.1.15" etag="inWIjnWFz9pzscKHoje3" version="20.8.23" type="github">
  <diagram name="第 1 页" id="WeU0UV5Vs4RiK9Gy6WtP">
    <mxGraphModel dx="803" dy="419" grid="0" gridSize="10" guides="1" tooltips="1" connect="1" arrows="1" fold="1" page="1" pageScale="1" pageWidth="827" pageHeight="1169" math="0" shadow="0">
      <root>
        <mxCell id="0" />
        <mxCell id="1" parent="0" />
        <mxCell id="Mg13thOmVDUa499xHJIR-14" style="edgeStyle=orthogonalEdgeStyle;rounded=0;orthogonalLoop=1;jettySize=auto;html=1;exitX=1;exitY=0.5;exitDx=0;exitDy=0;entryX=0;entryY=0.5;entryDx=0;entryDy=0;startArrow=none;" parent="1" source="Mg13thOmVDUa499xHJIR-1" target="Mg13thOmVDUa499xHJIR-13" edge="1">
          <mxGeometry relative="1" as="geometry" />
        </mxCell>
        <mxCell id="Mg13thOmVDUa499xHJIR-2" value="Send Email System" style="ellipse;whiteSpace=wrap;html=1;aspect=fixed;" parent="1" vertex="1">
          <mxGeometry x="479" y="131" width="80" height="80" as="geometry" />
        </mxCell>
        <mxCell id="Mg13thOmVDUa499xHJIR-4" value="Refresh page" style="shape=card;whiteSpace=wrap;html=1;" parent="1" vertex="1">
          <mxGeometry x="637" y="240" width="120" height="80" as="geometry" />
        </mxCell>
        <mxCell id="Mg13thOmVDUa499xHJIR-24" style="edgeStyle=orthogonalEdgeStyle;rounded=0;orthogonalLoop=1;jettySize=auto;html=1;exitX=1;exitY=0.5;exitDx=0;exitDy=0;" parent="1" source="Mg13thOmVDUa499xHJIR-13" target="Mg13thOmVDUa499xHJIR-4" edge="1">
          <mxGeometry relative="1" as="geometry" />
        </mxCell>
        <mxCell id="UWUFO1Vf7ScztyN7d9Ol-1" style="edgeStyle=orthogonalEdgeStyle;rounded=0;orthogonalLoop=1;jettySize=auto;html=1;exitX=0.5;exitY=0;exitDx=0;exitDy=0;entryX=0.5;entryY=1;entryDx=0;entryDy=0;fontSize=11;" edge="1" parent="1" source="Mg13thOmVDUa499xHJIR-13" target="Mg13thOmVDUa499xHJIR-2">
          <mxGeometry relative="1" as="geometry" />
        </mxCell>
        <mxCell id="UWUFO1Vf7ScztyN7d9Ol-5" style="edgeStyle=orthogonalEdgeStyle;rounded=0;orthogonalLoop=1;jettySize=auto;html=1;exitX=1;exitY=1;exitDx=0;exitDy=0;entryX=0.681;entryY=0.007;entryDx=0;entryDy=0;fontSize=11;entryPerimeter=0;" edge="1" parent="1" source="Mg13thOmVDUa499xHJIR-13" target="Mg13thOmVDUa499xHJIR-27">
          <mxGeometry relative="1" as="geometry" />
        </mxCell>
        <mxCell id="Mg13thOmVDUa499xHJIR-13" value="Delete User&lt;br&gt;System" style="ellipse;whiteSpace=wrap;html=1;aspect=fixed;" parent="1" vertex="1">
          <mxGeometry x="477" y="240" width="80" height="80" as="geometry" />
        </mxCell>
        <mxCell id="Mg13thOmVDUa499xHJIR-15" value="user id" style="text;html=1;align=center;verticalAlign=middle;resizable=0;points=[];autosize=1;strokeColor=none;fillColor=none;" parent="1" vertex="1">
          <mxGeometry x="410" y="250" width="60" height="30" as="geometry" />
        </mxCell>
        <mxCell id="UWUFO1Vf7ScztyN7d9Ol-4" style="edgeStyle=orthogonalEdgeStyle;rounded=0;orthogonalLoop=1;jettySize=auto;html=1;exitX=0.288;exitY=0;exitDx=0;exitDy=0;entryX=0;entryY=1;entryDx=0;entryDy=0;fontSize=11;exitPerimeter=0;" edge="1" parent="1" source="Mg13thOmVDUa499xHJIR-27" target="Mg13thOmVDUa499xHJIR-13">
          <mxGeometry relative="1" as="geometry" />
        </mxCell>
        <mxCell id="Mg13thOmVDUa499xHJIR-27" value="User entity (database)" style="shape=partialRectangle;whiteSpace=wrap;html=1;left=0;right=0;fillColor=none;rounded=0;strokeColor=default;fontFamily=Helvetica;fontSize=12;fontColor=default;" parent="1" vertex="1">
          <mxGeometry x="447" y="363" width="144" height="33" as="geometry" />
        </mxCell>
        <mxCell id="Mg13thOmVDUa499xHJIR-31" value="user id" style="text;html=1;align=center;verticalAlign=middle;resizable=0;points=[];autosize=1;strokeColor=none;fillColor=none;" parent="1" vertex="1">
          <mxGeometry x="537" y="314" width="60" height="30" as="geometry" />
        </mxCell>
        <mxCell id="Mg13thOmVDUa499xHJIR-1" value="Delete user button" style="rounded=0;whiteSpace=wrap;html=1;" parent="1" vertex="1">
          <mxGeometry x="290" y="250" width="120" height="60" as="geometry" />
        </mxCell>
        <mxCell id="UWUFO1Vf7ScztyN7d9Ol-2" value="email" style="text;html=1;align=center;verticalAlign=middle;resizable=0;points=[];autosize=1;strokeColor=none;fillColor=none;fontSize=11;" vertex="1" parent="1">
          <mxGeometry x="520" y="215" width="44" height="25" as="geometry" />
        </mxCell>
        <mxCell id="UWUFO1Vf7ScztyN7d9Ol-3" style="edgeStyle=orthogonalEdgeStyle;rounded=0;orthogonalLoop=1;jettySize=auto;html=1;exitX=0.5;exitY=1;exitDx=0;exitDy=0;fontSize=11;" edge="1" parent="1" source="Mg13thOmVDUa499xHJIR-27" target="Mg13thOmVDUa499xHJIR-27">
          <mxGeometry relative="1" as="geometry" />
        </mxCell>
        <mxCell id="UWUFO1Vf7ScztyN7d9Ol-8" value="email" style="text;html=1;align=center;verticalAlign=middle;resizable=0;points=[];autosize=1;strokeColor=none;fillColor=none;fontSize=11;" vertex="1" parent="1">
          <mxGeometry x="443" y="327" width="44" height="25" as="geometry" />
        </mxCell>
      </root>
    </mxGraphModel>
  </diagram>
</mxfile>
